<?xml version="1.0"?>
<svg xmlns="http://www.w3.org/2000/svg" xmlns:xlink="http://www.w3.org/1999/xlink" width="1198.226px" height="201.137px">
			<path fill="#0267B3" d="M11.709,0.647c1.94-0.99,4.26-0.45,6.15,0.39c2.27,3.15,2.86,7.46,6.1,9.91
				c4.44,3.44,10.18,4.51,15.58,5.51c7.13,0.47,14.39-0.75,21.46,0.7c3.7,1.26,5.97,4.97,7.2,8.49c2.69,9.75,1.32,19.94,0.39,29.84
				c-1.64,9.61-0.65,19.39-0.9,29.09c0.04,11.66-0.2,23.35,0.59,34.99c0.77,5.95,0.18,11.96,0.83,17.91
				c1.12,7,1.62,14.06,2.24,21.11c0.94,4.68,0.05,9.46-1.27,13.97c-1.29,4.45-4.55,7.88-7.38,11.39
				c-3.51,4.08-6.59,8.63-10.93,11.91c-2.14,0.55-5.18,1.09-6.6-1.09c-3.42-5-2.96-11.37-3.52-17.14
				c-0.03-35.68-0.01-71.37-0.01-107.05c-0.13-3.64,0.7-7.66-1.42-10.9c-3.32-5.12-9.56-7.29-15.38-7.89
				c-4.27-0.97-8.85,0.1-12.95-1.69c-3.41-1.37-6.66-3.17-9.54-5.45c-1.57-1.15-2.34-3.1-2.25-5.02
				c-0.72-8.06,2.69-15.62,3.84-23.48C5.199,10.597,5.899,3.367,11.709,0.647z"/>
			<path fill="#0267B3" d="M85.649,0.537c1.71-0.79,3.73-0.39,5.43,0.24c3,3.46,3.71,8.71,7.92,11.15c9.46,5.6,20.9,4.72,31.46,4.51
				c3.93-0.28,7.62,2.13,9.77,5.29c2.91,5.1,2.78,11.19,3.38,16.87c-0.07,8.7-2.11,17.27-1.9,25.99
				c0.02,20.69-0.78,41.45,1.85,62.02c0.59,9.37,2.87,18.97,0.36,28.26c-1.36,5.37-5.49,9.32-8.82,13.54
				c-3,3.55-5.54,7.63-9.43,10.31c-2.36,1.05-5.67,1.1-7.06-1.48c-3.11-4.91-2.99-11.05-2.99-16.66
				c0.06-30.33,0.01-60.65,0.03-90.98c-0.22-3.24,0.22-6.82-1.69-9.66c-2.9-4.92-8.57-7.17-13.92-8.19
				c-4.74-1.22-9.85,0.44-14.43-1.58c-3.97-1.62-7.84-3.81-10.76-7.01c-1.32-1.48-2.46-3.46-1.81-5.5
				c1.7-8.61,3.66-17.17,5.51-25.74C79.529,7.567,81.129,2.337,85.649,0.537z"/>
			<path fill="#0267B3" d="M167.309,2.577c1.66-2.8,7.03-3.81,8.49-0.39c2.83,5.76,4.31,13.28,10.69,16.24
				c7.66,2.11,15.78,1.7,23.51,3.55c2.48,0.64,4.35,3.01,4.59,5.51c-0.6,8.03-2.85,15.81-4.02,23.76c-0.38,2.73-1.58,5.22-2.69,7.71
				c-4.81,0.32-9.64-0.16-14.44,0.17c-4.84,1.88-7.16,7.28-7.43,12.16c-0.16,4.11-0.59,8.19-0.87,12.28
				c0.83,8.81,1,17.69,2.38,26.45c0.61,7.93,2.6,15.66,3.5,23.55c0.34,3.02,1.27,5.93,2.39,8.74c2.46,0.13,5.14,1.06,7.47-0.15
				c1.23-1.39,1.72-3.22,2.18-4.97c8.91-39.9,17.08-79.96,26.1-119.83c1.08-5.49,1.58-12.12,6.54-15.66
				c1.79-0.31,4.36-0.26,4.97,1.87c2.48,5,2.08,12.1,7.38,15.27c6.92,2.92,14.78-0.15,21.87,2.3c0.13,8.27,0.63,16.69-1.61,24.76
				c-1.2,4.4-0.97,10.8-6.1,12.62c-6.58,1.47-13.28-0.48-19.92-0.3c-2.62,2.99-3.22,7.13-4.75,10.7
				c-7.72,20.03-15.04,40.28-19.99,61.2c-0.99,3.59-1.61,7.29-3,10.77c3.72,1.66,7.9,1.08,11.84,0.78
				c17.78-2.03,35.87-6.88,50.44-17.66c12.36-8.7,20.48-22.65,23.65-37.28c1.23-5.3,1.79-10.72,2.93-16.04
				c0.63-3.4,1.34-7.06,0.12-10.41c-0.65-1.65-2.74-1.86-4.26-1.99c-6.05-0.15-12.43,0.02-18.02-2.63c-2.68-1.1-3.79-4.28-2.93-6.94
				c2.71-12.83,6.22-25.46,9.06-38.26c0.83-2.22,1.19-5.73,4.06-6.09c1.77-0.33,3.77-0.2,5.3,0.83c2.86,4.43,2.08,11.01,6.75,14.27
				c6.17,3.67,13.85,2.23,20.46,4.52c4.95,2.62,4.25,8.77,3.87,13.47c-1.64,11.06-3.85,22.03-6.04,33
				c-6.11,25.04-14.49,49.72-27.15,72.26c-3.48,6.27-8.21,11.94-14.04,16.13c-17.53,9.96-37.71,13.83-57.39,17.04
				c-7.05,1.42-14.28,1.25-21.35,2.49c-6.53,1.28-13.23,0.17-19.78,1.23c-2.92,0.48-6.19,0.74-8.73-1.1
				c-1.48-1.34-2.13-3.31-2.67-5.17c-1.42-5.84-2.82-11.7-3.56-17.66c-2.86-15.85-6.71-32.09-3.8-48.22
				c1.23-11.92,5.95-23.01,9.54-34.32c1.61-4.32,3.84-9.3,1.69-13.8c-4.98-4.51-12.59-5.77-16.29-11.78
				c-2.85-8.46,0.78-17.12,2.75-25.34C163.029,15.667,163.549,8.477,167.309,2.577z"/>
			<path fill="#0267B3" d="M352.329,6.557c1.59-3.48,4.95-6.73,9.05-6.4c2.38-0.39,3.72,2.07,4.54,3.9
				c0.44,4.23-1.54,8.26-1.22,12.5c-0.51,8.68,4.47,16.44,10.09,22.59c11.85,12.2,25.2,22.78,37.65,34.33
				c5.75,4.92,11.12,10.25,17,15.02c4.47-5.13,9.83-9.55,13.51-15.32c2.2-2.94,0.73-7.15-1.69-9.48
				c-7.26-6.63-17.13-11.23-21.09-20.78c-2.38-4.7,0.09-9.89,2.6-13.95c4.77-7.19,9.76-14.23,14.52-21.43
				c2.23-3.26,5.08-6.57,9.14-7.42c3.03-0.6,5.98,2.38,5.37,5.39c-0.38,3.97-1.43,7.98-0.59,11.97c2.07,4.5,6.85,6.67,10.18,10.1
				c4.35,4.38,11.05,7.51,11.99,14.27c1.6,8.63-3.12,16.92-7.93,23.74c-8.35,10.8-17.14,21.26-25.82,31.79
				c8.47,9.16,17.64,17.67,25.67,27.23c3.4,4.88,6.26,10.34,7.5,16.19c0.86,11.46,0.08,23.92-6.62,33.68
				c-1.75,2.88-5.38,3.25-8.41,2.76c-2.42-1.32-3.55-4.03-4.74-6.37c-6.76-14.62-16.35-27.86-27.86-39.1
				c-17.22-15.12-34.49-30.18-51.66-45.36c-2.14-1.73-4.53-4.5-7.59-3.4c-7.74,6.59-10.53,17.84-8.25,27.57
				c2.01,10.15,9.23,18.31,17.08,24.62c6.93,5.73,15.17,9.51,22.6,14.48c2.37,1.16,1.74,4.39,0.38,6.11
				c-4.32,6.02-9.76,11.14-14.07,17.17c-1.93,3.01-5.24,5.34-8.95,4.13c-5.83-2.56-10.96-6.97-17.51-7.64
				c-8.99-0.67-16.63,6.44-25.6,5.79c-3.26,0-4.93-4.05-3.14-6.58c4.31-6.33,11.35-10.13,18.22-13.1
				c-9.42-13.55-16.59-30.47-12.48-47.18c3.29-14.34,14.12-24.9,23.27-35.76c-4.94-4.77-9.75-9.69-14.67-14.48
				c-3.43-3.36-6.91-7.49-6.91-12.55c0.48-4.34,2.37-8.38,4.16-12.31C344.379,24.477,348.069,15.387,352.329,6.557z"/>
			<path fill="#0267B3" d="M494.779,0.777c1.84-1.11,4.31-0.67,6.26-0.01c3.95,3.89,4.2,10.07,7.96,14.13
				c2,2.39,5.34,3.04,8.32,3.03c15.01-0.04,30.02-0.04,45.04-0.01c6.37,0.09,12.64-1.36,19.02-1.36c5.13-0.03,10.46-1.28,15.42,0.6
				c8.87,2.6,16.25,10.91,16.25,20.38c-0.11,5.74,0.15,11.54-0.92,17.21c-1.24,16.05-1.91,32.22-0.43,48.28
				c-0.05,7.9,1.21,15.7,1.73,23.56c0.75,10.7,3.75,22.09-0.93,32.33c-4.7,6.74-10.13,13-16.02,18.73
				c-2.63,3.06-7.85,1.78-9.27-1.86c-2.78-6.68-1.89-14.15-1.85-21.2c0.02-29.36,0.01-58.72,0.01-88.08
				c-0.17-4.07-0.56-8.51-2.98-11.92c-3.92-4.03-10.09-3.47-15.15-2.6c-15.94,0.8-31.92,0.07-47.87,0.43
				c-9.39,0.78-19.37,1.18-28.14-2.78c-4.65-2-9.15-6.53-8.19-12.01c1.47-8.41,3.55-16.71,5.26-25.08
				C489.239,8.117,490.689,3.317,494.779,0.777z"/>
			<path fill="#0267B3" d="M699.769,0.797c2.04-1.1,5.02-0.94,6.86,0.54c3.02,4.19,3.96,9.58,7.37,13.53
				c1.96,2.47,5.32,3.16,8.32,3.06c14.02-0.05,28.04-0.03,42.05-0.02c12.5,0.42,25.03-3.52,37.45-0.72
				c8.87,2.55,16.04,11,16.29,20.35c0.14,5.01-0.15,10.04-0.94,14.99c-0.67,10.34-1.56,20.66-1.22,31.04
				c-0.5,8.03,1.01,15.97,0.94,24c-0.05,14.9,4.4,29.64,2.65,44.56c-0.71,7.92-7.45,12.9-11.74,18.96
				c-3.08,3.37-5.94,8.85-11.28,8.17c-2.73-0.02-3.99-2.96-4.83-5.12c-2.8-8.91-1.73-18.37-1.72-27.56
				c-0.03-27.25,0.08-54.49-0.05-81.74c0.01-4.61-0.48-10.8-5.69-12.46c-6.89-1.39-13.92,0.04-20.87-0.04
				c-18.67-0.02-37.35,0.06-56.03-0.05c-7.09,0.03-14.72-2.96-18.41-9.31c-2.08-3.4-0.44-7.26,0.14-10.82
				c1.16-6.92,3.06-13.69,4.41-20.57C694.299,7.477,695.979,3.047,699.769,0.797z"/>
			<path fill="#0267B3" d="M836.699,0.637c2.07-0.59,5.33-1.26,6.62,1c2.56,3.19,3.32,7.71,6.9,10.08
				c4.29,2.71,9.39,3.79,14.32,4.74c7.37,0.5,14.91-0.88,22.18,0.88c5.29,2.39,7.29,8.41,8.02,13.74
				c1.18,11.19-0.82,22.34-1.73,33.47c-0.27,19.06-0.63,38.21,1.89,57.15c0.39,7.32,1.63,14.56,2.01,21.88
				c0.15,6.46-0.57,13.53-4.95,18.64c-4.39,5.23-8.47,10.77-13.51,15.4c-2.57,2.85-8.09,2.14-9.28-1.75
				c-3.73-9.99-2.38-20.86-2.27-31.29c0.01-26.34-0.01-52.67,0.02-79.01c0.18-7.3-7-12.04-13.44-13.32
				c-5.38-2.01-11.37,0.19-16.64-2.24c-4.4-1.82-9-4.13-11.64-8.26c-1.12-1.48-0.88-3.38-0.51-5.06c2-9.24,3.7-18.56,6.06-27.72
				C831.789,5.717,833.379,2.097,836.699,0.637z"/>
			<path fill="#0267B3" d="M914.859,0.977c2.38-1.22,6.6-1.76,7.95,1.2c2.71,4.35,3.74,9.75,7.45,13.47c1.8,1.91,4.56,2.3,7.07,2.28
				c15.01-0.05,30.03-0.03,45.04-0.03c9-0.03,18.06,0.23,26.99-1.14c5.62-0.51,11.33-0.68,16.96-0.15
				c6.91,1.5,11.62,7.64,13.81,14.04c4.08,11.53,2.82,23.94,3.04,35.93c-0.35,15.17,1.71,30.53-1.52,45.52
				c-2.04,11.23-6.9,21.92-14.021,30.84c-3.47,4.4-8.26,7.53-13.35,9.75c-10.85,5.05-22.88,6.45-34.08,10.46
				c-7.58,2.3-14.49,6.2-21.51,9.77c-1.99,1.06-4.32,1.7-6.52,0.96c-2.45-2.32-2.46-6.16-1.65-9.2c2.03-7.47,4.61-14.78,6.66-22.25
				c1.05-4.23,3.98-8.28,8.35-9.47c9.15-2.79,18.76-3.64,27.94-6.37c7.16-2.13,15.86-1.7,21.25-7.67c4.51-5.25,5.22-12.69,4.9-19.32
				c-1.41-12.57,0.43-25.39-2.2-37.84c-1.24-3.97-3.27-8.66-7.73-9.74c-6.66-2.41-13.53,0.39-20.3,0.31
				c-13.68,0.06-27.35-0.05-41.02,0.04c-11.11,0.88-22.48,1.23-33.36-1.5c-5.4-1.41-11.53-5.05-11.68-11.3
				c0.81-8.45,3.59-16.55,5.12-24.88C909.489,9.757,910.669,4.277,914.859,0.977z"/>
			<path fill="#0267B3" d="M1085.879,0.927c2.49-1.65,6.85-0.89,8.05,2.15c2,4.48,0.44,9.53,1.59,14.19
				c1.27,5.34,4.13,10.31,7.95,14.23c2.79,2.54,6.56,0.01,8.91-1.93c4.3-3.99,8.56-8.06,12.47-12.45c3.65-4.09,6.4-8.93,10.36-12.76
				c1.47-1.78,4.01-1.26,6.05-1.08c3.16,3.14,3.53,8.43,7.47,10.92c8.88,4.77,18.58,7.77,27.48,12.49
				c7.14,3.35,12.83,9.62,14.93,17.29c2.79,10.39,2.09,21.31,3.47,31.92c0.46,9.59,1.51,19.13,1.95,28.73
				c0.01,6.38,2.04,12.56,1.59,18.95c0.51,11.95-1.49,24.12-6.61,34.98c-4.1,8.38-12.26,15.76-22.11,15.35
				c-12.21-1.14-24.38-2.62-36.63-2.91c-3.479-0.34-6.97-1.11-10.43-0.31c-8.95,0.83-18.07,1.76-26.46,5.22
				c-4.53,1.65-9.15,4.29-14.14,3.16c-3.23-1.07-3.88-5.2-2.72-8c1.47-4.94,5.24-8.61,7.94-12.86c4.17-5.74,7.68-12.31,13.74-16.32
				c5.26-3.26,11.43-4.78,17.55-5.27c15.06,0.15,30.07,1.29,45.1,2.24c3.26-0.03,6.86,0.46,9.75-1.42
				c3.85-5.1,2.72-11.89,2.56-17.84c-1.17-12.57-2.05-25.17-2.97-37.77c-1.43-7.91-0.83-17.35-7.51-23.09
				c-7.93-5.09-17.2-7.53-25.74-11.37c-5.8-2.24-12.23-6.14-18.49-3.26c-10.17,4.93-17.96,13.57-24.95,22.23
				c-8.46,10.42-12.43,23.71-13.97,36.86c-1.03,13.12-0.91,26.28-0.92,39.44c-0.09,10.22-8.26,17.42-13.24,25.55
				c-2.86,3.88-5.65,9.81-11.39,9.17c-4.24,0.18-3.68-5.35-4.48-8.22c-1.53-15.19-0.47-30.62,2.27-45.62
				c2.46-14.42,8.17-28.1,15.2-40.86c3.6-7.19,8.1-13.89,11.67-21.07c-5.16-6.69-12.45-11.96-15.6-20.05
				c-2.42-5.31-1.99-11.72,0.75-16.82c2.82-4.18,6.26-7.89,9.28-11.92C1078.909,8.747,1081.849,4.337,1085.879,0.927z"/>
			<path fill="#0267B3" d="M908.659,107.597c-0.95-14.6,1.96-29.44,8.56-42.52c6.26,0.28,12.53-0.09,18.8,0.31
				c-0.26,8.88,0,17.76,0.87,26.6c0.14,12.87,1.18,25.71,1.28,38.59c1.1,11.32,0.34,22.72,1.6,34.03
				c0.39,8.06-0.35,17.06-5.82,23.46c-4.57,5.37-10.16,9.97-16.61,12.88c-2.39,0.21-4.79,0.12-7.17,0.19
				c-2.12-5.63-1.31-11.69-1.45-17.56C908.659,158.247,908.799,132.927,908.659,107.597z"/>
</svg>